<svg xmlns="http://www.w3.org/2000/svg" viewBox="0 0 64 64">
  <defs>
    <linearGradient id="g" x1="0" y1="0" x2="1" y2="1">
      <stop offset="0%" stop-color="#2dd4bf"/>
      <stop offset="100%" stop-color="#6366f1"/>
    </linearGradient>
    <filter id="s" x="-20%" y="-20%" width="140%" height="140%">
      <feDropShadow dx="0" dy="2" stdDeviation="2" flood-color="#000" flood-opacity="0.25"/>
    </filter>
  </defs>
  <rect x="6" y="6" width="52" height="52" rx="12" fill="url(#g)" filter="url(#s)"/>
  <rect x="16" y="14" width="32" height="36" rx="8" fill="#0b1020" opacity="0.9"/>
  <rect x="20" y="20" width="24" height="6" rx="3" fill="#a5b4fc"/>
  <g fill="#34d399">
    <rect x="20" y="30" width="8" height="6" rx="2"/>
    <rect x="30" y="30" width="8" height="6" rx="2"/>
    <rect x="40" y="30" width="4" height="14" rx="2"/>
    <rect x="20" y="38" width="8" height="6" rx="2"/>
    <rect x="30" y="38" width="8" height="6" rx="2"/>
  </g>
  <path d="M42 22c0-2.5 2-4.5 4.5-4.5S51 19.5 51 22" stroke="#a5b4fc" stroke-width="2" fill="none" stroke-linecap="round"/>
</svg>

